<svg id="drawing" xmlns="http://www.w3.org/2000/svg" version="1.1" xmlns:xlink="http://www.w3.org/1999/xlink" xmlns:svgjs="http://svgjs.com/svgjs" width="807.748046875" height="460.7915954589844" viewBox="109.95933532714844 179.4375457763672 807.748046875 460.7915954589844"><defs id="SvgjsDefs1044"><marker id="SvgjsMarker1061" markerWidth="16.23606797749979" markerHeight="10.550836550532098" refX="-1" refY="3.8990363547948754" viewBox="-1 -1.3763819204711738 16.23606797749979 10.550836550532098" orient="auto" markerUnits="userSpaceOnUse"><path id="SvgjsPath1062" d="M12 3.8990363547948754L0 7.798072709589751V0Z " stroke="#323232" stroke-width="2" fill="#323232" transform="matrix(1,0,0,1,0,0)"></path></marker><marker id="SvgjsMarker1068" markerWidth="16.23606797749979" markerHeight="10.550836550532098" refX="-1" refY="3.8990363547948754" viewBox="-1 -1.3763819204711738 16.23606797749979 10.550836550532098" orient="auto" markerUnits="userSpaceOnUse"><path id="SvgjsPath1069" d="M12 3.8990363547948754L0 7.798072709589751V0Z " stroke="#323232" stroke-width="2" fill="#323232" transform="matrix(1,0,0,1,0,0)"></path></marker></defs><g id="SvgjsG1045"><path id="SvgjsPath1046" d="M109.95933532714844 179.4375457763672H917.7073822021484V640.2291412353516H109.95933532714844V179.4375457763672Z " fill-opacity="0" fill="none"></path><g id="SvgjsG1047"><g id="SvgjsG1048" transform="translate(129.95932802829367 402.76832377310393)" opacity="1"><path id="SvgjsPath1049" d="M15.962864721485412 9.040391969407265C15.962864721485412 -3.0134639898024216 31.925729442970823 -3.0134639898024216 31.925729442970823 9.040391969407265C31.925729442970823 21.09424792861695 15.962864721485412 21.09424792861695 15.962864721485412 9.040391969407265M23.94429708222812 18.08078393881453L23.94429708222812 54.24235181644359M23.94429708222812 54.24235181644359L3.990716180371353 72.32313575525812M23.94429708222812 54.24235181644359L43.89787798408488 72.32313575525812M0 36.16156787762906L47.88859416445624 36.16156787762906 " stroke-dasharray="none" stroke="#323232" stroke-width="2" fill="#ffffff" opacity="1"></path><path id="SvgjsPath1050" d="M0 0L47.88859416445624 0L47.88859416445624 72.32313575525812L0 72.32313575525812Z " stroke-dasharray="none" stroke-width="0" stroke="#323232" fill="none" opacity="1"></path></g><g id="SvgjsG1051" transform="translate(680.9911582670202 199.4375398342894)" opacity="1"><path id="SvgjsPath1052" d="M0 0L216.7161803713528 0L216.7161803713528 108.05927342256214L0 108.05927342256214Z " stroke-dasharray="none" stroke="#323232" stroke-width="2" fill="#ffffff" opacity="1"></path><g id="SvgjsG1053" transform="matrix(1 0 0 1 10 37.77963671128107)" fill="#ffffff"><text id="SvgjsText1054" font-family="微软雅黑,黑体,Arial,SimSun" fill="#000000" font-size="26" font-weight="normal" font-style="normal" text-anchor="middle" text-decoration="blink" x="98.3580901856764" y="28">GGLY-Server</text></g></g><g id="SvgjsG1055" transform="translate(680.9911582670202 510.468132568515)" opacity="1"><path id="SvgjsPath1056" d="M0 0L216.7161803713528 0L216.7161803713528 109.76099426386233L0 109.76099426386233Z " stroke-dasharray="none" stroke="#323232" stroke-width="2" fill="#ffffff" opacity="1"></path><g id="SvgjsG1057" transform="matrix(1 0 0 1 10 38.630497131931165)" fill="#ffffff"><text id="SvgjsText1058" font-family="微软雅黑,黑体,Arial,SimSun" fill="#000000" font-size="26" font-weight="normal" font-style="normal" text-anchor="middle" text-decoration="blink" x="98.3580901856764" y="28">CPServer</text></g></g><g id="SvgjsG1059"><path id="SvgjsPath1060" d="M177.84792219274993 438.929891650733L189.41954022988511 438.929891650733L189.41954022988511 253.46717654557045L665.7550902895204 253.46717654557045 " stroke-dasharray="none" stroke="#323232" stroke-width="2" fill="none" marker-end="url(#SvgjsMarker1061)"></path><g id="SvgjsG1063" transform="matrix(1 0 0 1 329.0701486885539 245.34217654557045)"><path id="SvgjsPath1064" d="M0 0H0V0H0V0Z " fill="#ffffff" transform="translate(0 0)"></path><text id="SvgjsText1065" font-family="Microsoft Yahei,SimSun" fill="#000000" font-size="13" font-weight="normal" font-style="normal" text-anchor="middle" text-decoration="blink" x="0" y="0"></text></g></g><g id="SvgjsG1066"><path id="SvgjsPath1067" d="M177.84792219274993 438.929891650733L189.41954022988511 438.929891650733L189.41954022988511 565.3486297004462L665.7550902895204 565.3486297004462 " stroke-dasharray="none" stroke="#323232" stroke-width="2" fill="none" marker-end="url(#SvgjsMarker1068)"></path><g id="SvgjsG1070" transform="matrix(1 0 0 1 358.59213721627856 557.2236297004462)"><path id="SvgjsPath1071" d="M0 0H0V0H0V0Z " fill="#ffffff" transform="translate(0 0)"></path><text id="SvgjsText1072" font-family="Microsoft Yahei,SimSun" fill="#000000" font-size="13" font-weight="normal" font-style="normal" text-anchor="middle" text-decoration="blink" x="0" y="0"></text></g></g><g id="SvgjsG1073" transform="translate(211.8819832097737 519.844805608668)" opacity="1"><path id="SvgjsPath1074" d="M0 0L429.65866841688086 0L429.65866841688086 44.38432122370932L0 44.38432122370932Z " stroke-dasharray="none" stroke-width="0" stroke="#323232" fill="none" opacity="1"></path><g id="SvgjsG1075" transform="matrix(1 0 0 1 0 9.69216061185466)" fill="#ffffff"><text id="SvgjsText1076" font-family="微软雅黑,黑体,Arial,SimSun" fill="#000000" font-size="20" font-weight="normal" font-style="normal" text-anchor="middle" text-decoration="blink" x="214.82933420844043" y="21.328125">1.游戏、商品详细数据录入</text></g></g><g id="SvgjsG1077" transform="translate(203.8819832097737 259.1124920331422)" opacity="1"><path id="SvgjsPath1078" d="M0 0L429.65866841688086 0L429.65866841688086 44.38432122370932L0 44.38432122370932Z " stroke-dasharray="none" stroke-width="0" stroke="#323232" fill="none" opacity="1"></path><g id="SvgjsG1079" transform="matrix(1 0 0 1 0 9.69216061185466)" fill="#ffffff"><text id="SvgjsText1080" font-family="微软雅黑,黑体,Arial,SimSun" fill="#000000" font-size="20" font-weight="normal" font-style="normal" text-anchor="middle" text-decoration="blink" x="214.82933420844043" y="21.328125">3.commdity_id, price_type, price录入</text></g></g><g id="SvgjsG1081" transform="translate(183.81498673740077 213.66666412353516)" opacity="1"><path id="SvgjsPath1082" d="M0 0L493.79266136162664 0L493.79266136162664 27L0 27Z " stroke-dasharray="none" stroke-width="0" stroke="#323232" fill="none" opacity="1"></path><g id="SvgjsG1083" transform="matrix(1 0 0 1 0 1)" fill="#ffffff"><text id="SvgjsText1084" font-family="微软雅黑,黑体,Arial,SimSun" fill="#000000" font-size="20" font-weight="normal" font-style="normal" text-anchor="middle" text-decoration="blink" x="246.89633068081332" y="21.328125">2.提供game_id获取secert_key,game_token验证地址</text></g></g></g></g></svg>