<svg id="drawing" xmlns="http://www.w3.org/2000/svg" version="1.1" xmlns:xlink="http://www.w3.org/1999/xlink" xmlns:svgjs="http://svgjs.com/svgjs" width="874.0814208984375" height="513.458251953125" viewBox="69.25199890136719 168.2084197998047 874.0814208984375 513.458251953125"><defs id="SvgjsDefs1001"><marker id="SvgjsMarker1029" markerWidth="16.23606797749979" markerHeight="10.550836550532098" refX="-1" refY="3.8990363547948754" viewBox="-1 -1.3763819204711738 16.23606797749979 10.550836550532098" orient="auto" markerUnits="userSpaceOnUse"><path id="SvgjsPath1030" d="M12 3.8990363547948754L0 7.798072709589751V0Z " stroke="#323232" stroke-width="2" fill="#323232" transform="matrix(1,0,0,1,0,0)"></path></marker><marker id="SvgjsMarker1036" markerWidth="16.23606797749979" markerHeight="10.550836550532098" refX="-1" refY="3.8990363547948754" viewBox="-1 -1.3763819204711738 16.23606797749979 10.550836550532098" orient="auto" markerUnits="userSpaceOnUse"><path id="SvgjsPath1037" d="M12 3.8990363547948754L0 7.798072709589751V0Z " stroke="#323232" stroke-width="2" fill="#323232" transform="matrix(1,0,0,1,0,0)"></path></marker></defs><g id="SvgjsG1007"><path id="SvgjsPath1008" d="M69.25199890136719 168.2084197998047H943.3334197998047V681.6666717529297H69.25199890136719V168.2084197998047Z " fill-opacity="0" fill="none"></path><g id="SvgjsG1009"><g id="SvgjsG1010" transform="translate(217.33331298828125 440.8623326959847)" opacity="1"><path id="SvgjsPath1011" d="M0 4Q0 0 4 0L702 0Q706 0 706 4L706 216.80435431573403Q706 220.80435431573403 702 220.80435431573403L4 220.80435431573403Q0 220.80435431573403 0 216.80435431573403Z " stroke-dasharray="10 4" stroke="#323232" stroke-width="2" fill="#ffffff" opacity="1"></path></g><g id="SvgjsG1012" transform="translate(649.283819628647 188.20841300191205)" opacity="1"><path id="SvgjsPath1013" d="M0 0L216.7161803713528 0L216.7161803713528 108.05927342256214L0 108.05927342256214Z " stroke-dasharray="none" stroke="#323232" stroke-width="2" fill="#ffffff" opacity="1"></path><g id="SvgjsG1014" transform="matrix(1 0 0 1 10 37.77963671128107)" fill="#ffffff"><text id="SvgjsText1015" font-family="微软雅黑,黑体,Arial,SimSun" fill="#000000" font-size="26" font-weight="normal" font-style="normal" text-anchor="middle" text-decoration="blink" x="98.3580901856764" y="28">GGLY-Server</text></g></g><g id="SvgjsG1016" transform="translate(649.283819628647 499.23900573613764)" opacity="1"><path id="SvgjsPath1017" d="M0 0L216.7161803713528 0L216.7161803713528 109.76099426386233L0 109.76099426386233Z " stroke-dasharray="none" stroke="#323232" stroke-width="2" fill="#ffffff" opacity="1"></path><g id="SvgjsG1018" transform="matrix(1 0 0 1 10 38.630497131931165)" fill="#ffffff"><text id="SvgjsText1019" font-family="微软雅黑,黑体,Arial,SimSun" fill="#000000" font-size="26" font-weight="normal" font-style="normal" text-anchor="middle" text-decoration="blink" x="98.3580901856764" y="28">3rd-CPServer</text></g></g><g id="SvgjsG1020" transform="translate(141.42464457140045 209.77820267686434)" opacity="1"><path id="SvgjsPath1021" d="M0 0L489.1586684168808 0L489.1586684168808 20L0 20Z " stroke-dasharray="none" stroke-width="0" stroke="#323232" fill="none" opacity="1"></path><g id="SvgjsG1022" transform="matrix(1 0 0 1 0 -2.5)" fill="#ffffff"><text id="SvgjsText1023" font-family="微软雅黑,黑体,Arial,SimSun" fill="#000000" font-size="20" font-weight="normal" font-style="normal" text-anchor="middle" text-decoration="blink" x="244.5793342084404" y="21.328125">1.申请game_id获取secert_key,game_token验证地址</text></g></g><g id="SvgjsG1024" transform="translate(89.25198938992042 391.5391969407266)" opacity="1"><path id="SvgjsPath1025" d="M15.962864721485412 9.040391969407265C15.962864721485412 -3.0134639898024216 31.925729442970823 -3.0134639898024216 31.925729442970823 9.040391969407265C31.925729442970823 21.09424792861695 15.962864721485412 21.09424792861695 15.962864721485412 9.040391969407265M23.94429708222812 18.08078393881453L23.94429708222812 54.24235181644359M23.94429708222812 54.24235181644359L3.990716180371353 72.32313575525812M23.94429708222812 54.24235181644359L43.89787798408488 72.32313575525812M0 36.16156787762906L47.88859416445624 36.16156787762906 " stroke-dasharray="none" stroke="#323232" stroke-width="2" fill="#ffffff" opacity="1"></path><path id="SvgjsPath1026" d="M0 0L47.88859416445624 0L47.88859416445624 72.32313575525812L0 72.32313575525812Z " stroke-dasharray="none" stroke-width="0" stroke="#323232" fill="none" opacity="1"></path></g><g id="SvgjsG1027"><path id="SvgjsPath1028" d="M137.14058355437666 427.70076481835565L159.21220159151187 427.70076481835565L159.21220159151187 554.1195028680688L634.0477516511472 554.1195028680688 " stroke-dasharray="none" stroke="#323232" stroke-width="2" fill="none" marker-end="url(#SvgjsMarker1029)"></path><g id="SvgjsG1031" transform="matrix(1 0 0 1 322.38479857790537 545.9945028680688)"><path id="SvgjsPath1032" d="M0 0H0V0H0V0Z " fill="#ffffff" transform="translate(0 0)"></path><text id="SvgjsText1033" font-family="Microsoft Yahei,SimSun" fill="#000000" font-size="13" font-weight="normal" font-style="normal" text-anchor="middle" text-decoration="blink" x="0" y="0"></text></g></g><g id="SvgjsG1034"><path id="SvgjsPath1035" d="M137.14058355437666 427.70076481835565L160.21220159151187 427.70076481835565L160.21220159151187 242.23804971319316L634.0477516511472 242.23804971319316 " stroke-dasharray="none" stroke="#323232" stroke-width="2" fill="none" marker-end="url(#SvgjsMarker1036)"></path><g id="SvgjsG1038" transform="matrix(1 0 0 1 292.8628100501807 234.11304971319316)"><path id="SvgjsPath1039" d="M0 0H0V0H0V0Z " fill="#ffffff" transform="translate(0 0)"></path><text id="SvgjsText1040" font-family="Microsoft Yahei,SimSun" fill="#000000" font-size="13" font-weight="normal" font-style="normal" text-anchor="middle" text-decoration="blink" x="0" y="0"></text></g></g><g id="SvgjsG1041" transform="translate(352.7959668389682 487.66668701171875)" opacity="1"><path id="SvgjsPath1042" d="M0 0L160 0L160 40L0 40Z " stroke-dasharray="none" stroke-width="0" stroke="#323232" fill="none" opacity="1"></path><g id="SvgjsG1043" transform="matrix(1 0 0 1 0 11.875)" fill="#ffffff"><text id="SvgjsText1044" font-family="微软雅黑,黑体,Arial,SimSun" fill="#000000" font-size="13" font-weight="normal" font-style="normal" text-anchor="middle" text-decoration="blink" x="80" y="17.328125">对GGLY-Server透明</text></g></g><g id="SvgjsG1045" transform="translate(171.17464457140045 247.61567877629068)" opacity="1"><path id="SvgjsPath1046" d="M0 0L473.1586684168808 0L473.1586684168808 38.05098534724448L0 38.05098534724448Z " stroke-dasharray="none" stroke-width="0" stroke="#323232" fill="none" opacity="1"></path><g id="SvgjsG1047" transform="matrix(1 0 0 1 0 6.525492673622239)" fill="#ffffff"><text id="SvgjsText1048" font-family="微软雅黑,黑体,Arial,SimSun" fill="#000000" font-size="20" font-weight="normal" font-style="normal" text-anchor="middle" text-decoration="blink" x="236.5793342084404" y="21.328125">2.game_id, commodity_id,price_type, price录入</text></g></g><g id="SvgjsG1049" transform="translate(203.33331298828125 283)" opacity="1"><path id="SvgjsPath1050" d="M0 0L376 0L376 45.666664123535156L0 45.666664123535156Z " stroke-dasharray="none" stroke-width="0" stroke="#323232" fill="none" opacity="1"></path><g id="SvgjsG1051" transform="matrix(1 0 0 1 0 10.333332061767578)" fill="#ffffff"><text id="SvgjsText1052" font-family="微软雅黑,黑体,Arial,SimSun" fill="#000000" font-size="20" font-weight="normal" font-style="normal" text-anchor="middle" text-decoration="blink" x="188" y="21.328125">eg: (xcdef5678, 4, RMB， 10)</text></g></g></g></g></svg>