<svg id="drawing" xmlns="http://www.w3.org/2000/svg" version="1.1" xmlns:xlink="http://www.w3.org/1999/xlink" xmlns:svgjs="http://svgjs.com/svgjs" width="983.6578369140625" height="577" viewBox="41.3421745300293 80 983.6578369140625 577"><defs id="SvgjsDefs1001"></defs><g id="SvgjsG1007"><path id="SvgjsPath1008" d="M41.3421745300293 80H1025.0000114440918V657H41.3421745300293V80Z " fill-opacity="0" fill="none"></path><g id="SvgjsG1009"><g id="SvgjsG1010" transform="translate(61.34217506631302 100)" opacity="1"><path id="SvgjsPath1011" d="M0 0L152.65782493368698 0L152.65782493368698 537L0 537Z " stroke-dasharray="none" stroke="#323232" stroke-width="2" fill="#ffffff" opacity="1"></path><g id="SvgjsG1012" transform="matrix(1 0 0 1 10 247.875)" fill="#ffffff"><text id="SvgjsText1013" font-family="微软雅黑,黑体,Arial,SimSun" fill="#000000" font-size="33" font-weight="normal" font-style="normal" text-anchor="middle" text-decoration="blink" x="66.32891246684349" y="35">GGSDK</text></g></g><g id="SvgjsG1014" transform="translate(700.283819628647 112.00000000000001)" opacity="1"><path id="SvgjsPath1015" d="M0 0L269.71618037135295 0L269.71618037135295 102.99999999999999L0 102.99999999999999Z " stroke-dasharray="none" stroke="#323232" stroke-width="2" fill="#ffffff" opacity="1"></path><g id="SvgjsG1016" transform="matrix(1 0 0 1 10 35.24999999999999)" fill="#ffffff"><text id="SvgjsText1017" font-family="微软雅黑,黑体,Arial,SimSun" fill="#000000" font-size="26" font-weight="normal" font-style="normal" text-anchor="middle" text-decoration="blink" x="124.85809018567647" y="28">GGServer(联运平台)</text></g></g><g id="SvgjsG1018" transform="translate(703.283819628647 486.73900573613764)" opacity="1"><path id="SvgjsPath1019" d="M0 0L216.7161803713528 0L216.7161803713528 109.76099426386233L0 109.76099426386233Z " stroke-dasharray="none" stroke="#323232" stroke-width="2" fill="#ffffff" opacity="1"></path><g id="SvgjsG1020" transform="matrix(1 0 0 1 10 38.630497131931165)" fill="#ffffff"><text id="SvgjsText1021" font-family="微软雅黑,黑体,Arial,SimSun" fill="#000000" font-size="26" font-weight="normal" font-style="normal" text-anchor="middle" text-decoration="blink" x="98.3580901856764" y="28">CPServer</text></g></g><g id="SvgjsG1022" transform="translate(246.0079575596817 120.07743785850869)" opacity="1"><path id="SvgjsPath1023" d="M0 0L297.99204244031836 0L297.99204244031836 26.384321223709378L0 26.384321223709378Z " stroke-dasharray="none" stroke-width="0" stroke="#323232" fill="none" opacity="1"></path><g id="SvgjsG1024" transform="matrix(1 0 0 1 0 0.692160611854689)" fill="#ffffff"><text id="SvgjsText1025" font-family="微软雅黑,黑体,Arial,SimSun" fill="#000000" font-size="20" font-weight="normal" font-style="normal" text-anchor="middle" text-decoration="blink" x="148.99602122015918" y="21">1.SDK向联运平台登录注册</text></g></g><g id="SvgjsG1026" transform="translate(229.36405835543775 201.11567877629068)" opacity="1"><path id="SvgjsPath1027" d="M0 0L438.63594164456225 0L438.63594164456225 21.88432122370932L0 21.88432122370932Z " stroke-dasharray="none" stroke-width="0" stroke="#323232" fill="none" opacity="1"></path><g id="SvgjsG1028" transform="matrix(1 0 0 1 0 -1.5578393881453394)" fill="#ffffff"><text id="SvgjsText1029" font-family="微软雅黑,黑体,Arial,SimSun" fill="#000000" font-size="20" font-weight="normal" font-style="normal" text-anchor="middle" text-decoration="blink" x="219.31797082228113" y="21"> 2.Success: 客户端获取到game_token;Fail:转1</text></g></g><g id="SvgjsG1030" transform="translate(268.0079575596817 467.6156787762906)" opacity="1"><path id="SvgjsPath1031" d="M0 0L297.99204244031836 0L297.99204244031836 26.384321223709378L0 26.384321223709378Z " stroke-dasharray="none" stroke-width="0" stroke="#323232" fill="none" opacity="1"></path><g id="SvgjsG1032" transform="matrix(1 0 0 1 0 0.692160611854689)" fill="#ffffff"><text id="SvgjsText1033" font-family="微软雅黑,黑体,Arial,SimSun" fill="#000000" font-size="20" font-weight="normal" font-style="normal" text-anchor="middle" text-decoration="blink" x="148.99602122015918" y="21">3.game_token向CPServer登录</text></g></g><g id="SvgjsG1034" transform="translate(218.0079575596817 142.46175908221807)" opacity="1"><path id="SvgjsPath1035" d="M0 6.6000000000000005L468.98806366047745 6.6000000000000005L468.98806366047745 0L478.98806366047745 10L468.98806366047745 20L468.98806366047745 13.4L0 13.4L0 6.6000000000000005Z " stroke-dasharray="none" stroke="#323232" stroke-width="2" fill="#ffffff" opacity="1"></path></g><g id="SvgjsG1036" transform="translate(218.0079575596817 175)" opacity="1"><path id="SvgjsPath1037" d="M0 10L10 0L10 6.6000000000000005L475.9920424403183 6.6000000000000005L475.9920424403183 13.4L10 13.4L10 20L0 10Z " stroke-dasharray="none" stroke="#323232" stroke-width="2" fill="#ffffff" opacity="1"></path></g><g id="SvgjsG1038" transform="translate(214 494)" opacity="1"><path id="SvgjsPath1039" d="M0 6.6000000000000005L477.00397877984085 6.6000000000000005L477.00397877984085 0L487.00397877984085 10L477.00397877984085 20L477.00397877984085 13.4L0 13.4L0 6.6000000000000005Z " stroke-dasharray="none" stroke="#323232" stroke-width="2" fill="#ffffff" opacity="1"></path></g><g id="SvgjsG1040" transform="translate(720 220)" opacity="1"><path id="SvgjsPath1041" d="M10 0L20 10L13.4 10L13.4 264.50000000000006L6.6000000000000005 264.50000000000006L6.6000000000000005 10L0 10L10 0Z " stroke-dasharray="none" stroke="#323232" stroke-width="2" fill="#ffffff" opacity="1"></path></g><g id="SvgjsG1042" transform="translate(849 220)" opacity="1"><path id="SvgjsPath1043" d="M6.6000000000000005 0L13.4 0L13.4 254.5L20 254.5L10 264.5L0 254.5L6.6000000000000005 254.5L6.6000000000000005 0Z " stroke-dasharray="none" stroke="#323232" stroke-width="2" fill="#ffffff" opacity="1"></path></g><g id="SvgjsG1044" transform="translate(214 560)" opacity="1"><path id="SvgjsPath1045" d="M0 10L10 0L10 6.6000000000000005L484.0079575596817 6.6000000000000005L484.0079575596817 13.4L10 13.4L10 20L0 10Z " stroke-dasharray="none" stroke="#323232" stroke-width="2" fill="#ffffff" opacity="1"></path></g><g id="SvgjsG1046" transform="translate(552.0079575596817 316.6156787762906)" opacity="1"><path id="SvgjsPath1047" d="M0 0L191.9920424403183 0L191.9920424403183 49.268642447418756L0 49.268642447418756Z " stroke-dasharray="none" stroke-width="0" stroke="#323232" fill="none" opacity="1"></path><g id="SvgjsG1048" transform="matrix(1 0 0 1 0 -0.36567877629062195)" fill="#ffffff"><text id="SvgjsText1049" font-family="微软雅黑,黑体,Arial,SimSun" fill="#000000" font-size="20" font-weight="normal" font-style="normal" text-anchor="middle" text-decoration="blink" x="95.99602122015915" y="21">4.CPServer验证gam</text><text id="SvgjsText1050" font-family="微软雅黑,黑体,Arial,SimSun" fill="#000000" font-size="20" font-weight="normal" font-style="normal" text-anchor="middle" text-decoration="blink" x="95.99602122015915" y="46">e_token</text></g></g><g id="SvgjsG1051" transform="translate(813.0079575596817 319.6156787762906)" opacity="1"><path id="SvgjsPath1052" d="M0 0L191.9920424403183 0L191.9920424403183 49.268642447418756L0 49.268642447418756Z " stroke-dasharray="none" stroke-width="0" stroke="#323232" fill="none" opacity="1"></path><g id="SvgjsG1053" transform="matrix(1 0 0 1 0 12.134321223709378)" fill="#ffffff"><text id="SvgjsText1054" font-family="微软雅黑,黑体,Arial,SimSun" fill="#000000" font-size="20" font-weight="normal" font-style="normal" text-anchor="middle" text-decoration="blink" x="95.99602122015915" y="21">5.return</text></g></g><g id="SvgjsG1055" transform="translate(262.0079575596817 585.6156787762907)" opacity="1"><path id="SvgjsPath1056" d="M0 0L324.9920424403183 0L324.9920424403183 36.38432122370932L0 36.38432122370932Z " stroke-dasharray="none" stroke-width="0" stroke="#323232" fill="none" opacity="1"></path><g id="SvgjsG1057" transform="matrix(1 0 0 1 0 5.692160611854661)" fill="#ffffff"><text id="SvgjsText1058" font-family="微软雅黑,黑体,Arial,SimSun" fill="#000000" font-size="20" font-weight="normal" font-style="normal" text-anchor="middle" text-decoration="blink" x="162.49602122015915" y="21">6.Success: 登录成功下一步;Fail:转1</text></g></g></g></g></svg>