<svg id="drawing" xmlns="http://www.w3.org/2000/svg" version="1.1" xmlns:xlink="http://www.w3.org/1999/xlink" xmlns:svgjs="http://svgjs.com/svgjs" width="1206.5" height="1074" viewBox="20.83331298828125 22.666664123535156 1206.5 1074"><defs id="SvgjsDefs1001"><marker id="SvgjsMarker1075" markerWidth="16.23606797749979" markerHeight="10.550836550532098" refX="-1" refY="3.8990363547948754" viewBox="-1 -1.3763819204711738 16.23606797749979 10.550836550532098" orient="auto" markerUnits="userSpaceOnUse"><path id="SvgjsPath1076" d="M12 3.8990363547948754L0 7.798072709589751V0Z " stroke="#323232" stroke-width="2" fill="#323232" transform="matrix(1,0,0,1,0,0)"></path></marker><marker id="SvgjsMarker1086" markerWidth="16.23606797749979" markerHeight="10.550836550532098" refX="-1" refY="3.8990363547948754" viewBox="-1 -1.3763819204711738 16.23606797749979 10.550836550532098" orient="auto" markerUnits="userSpaceOnUse"><path id="SvgjsPath1087" d="M12 3.8990363547948754L0 7.798072709589751V0Z " stroke="#323232" stroke-width="2" fill="#323232" transform="matrix(1,0,0,1,0,0)"></path></marker><marker id="SvgjsMarker1108" markerWidth="16.23606797749979" markerHeight="10.550836550532098" refX="-1" refY="3.8990363547948754" viewBox="-1 -1.3763819204711738 16.23606797749979 10.550836550532098" orient="auto" markerUnits="userSpaceOnUse"><path id="SvgjsPath1109" d="M12 3.8990363547948754L0 7.798072709589751V0Z " stroke="#323232" stroke-width="2" fill="#323232" transform="matrix(1,0,0,1,0,0)"></path></marker><marker id="SvgjsMarker1115" markerWidth="16.23606797749979" markerHeight="10.550836550532098" refX="-1" refY="3.8990363547948754" viewBox="-1 -1.3763819204711738 16.23606797749979 10.550836550532098" orient="auto" markerUnits="userSpaceOnUse"><path id="SvgjsPath1116" d="M12 3.8990363547948754L0 7.798072709589751V0Z " stroke="#323232" stroke-width="2" fill="#323232" transform="matrix(1,0,0,1,0,0)"></path></marker></defs><g id="SvgjsG1007"><path id="SvgjsPath1008" d="M20.83331298828125 22.666664123535156H1227.3333129882812V1096.6666641235352H20.83331298828125V22.666664123535156Z " fill-opacity="0" fill="none"></path><g id="SvgjsG1009"><g id="SvgjsG1010" transform="translate(40.83331298828125 42.666664123535156)" opacity="1"><path id="SvgjsPath1011" d="M0 4Q0 0 4 0L507.5 0Q511.5 0 511.5 4L511.5 1030Q511.5 1034 507.5 1034L4 1034Q0 1034 0 1030Z " stroke-dasharray="10 4" stroke="#323232" stroke-width="2" fill="#ffffff" opacity="1"></path></g><g id="SvgjsG1012" transform="translate(98.33331298828125 349.66666412353516)" opacity="1"><path id="SvgjsPath1013" d="M0 0L302 0L302 67L0 67Z " stroke-dasharray="none" stroke="#323232" stroke-width="2" fill="#ffffff" opacity="1"></path><g id="SvgjsG1014" transform="matrix(1 0 0 1 10 17.25)" fill="#ffffff"><text id="SvgjsText1015" font-family="微软雅黑,黑体,Arial,SimSun" fill="#000000" font-size="26" font-weight="normal" font-style="normal" text-anchor="middle" text-decoration="blink" x="141" y="28">3rd-CPServer</text></g></g><g id="SvgjsG1016" transform="translate(100.83331298828125 115.66666412353516)" opacity="1"><path id="SvgjsPath1017" d="M0 0L302 0L302 75L0 75Z " stroke-dasharray="none" stroke="#323232" stroke-width="2" fill="#ffffff" opacity="1"></path><g id="SvgjsG1018" transform="matrix(1 0 0 1 10 18.75)" fill="#ffffff"><text id="SvgjsText1019" font-family="微软雅黑,黑体,Arial,SimSun" fill="#000000" font-size="30" font-weight="normal" font-style="normal" text-anchor="middle" text-decoration="blink" x="141" y="32">Game</text></g></g><g id="SvgjsG1020" transform="translate(241.83331298828125 190.66666412353516)" opacity="1"><path id="SvgjsPath1021" d="M6.6000000000000005 0L13.4 0L13.4 149L20 149L10 159L0 149L6.6000000000000005 149L6.6000000000000005 0Z " stroke-dasharray="none" stroke="#323232" stroke-width="2" fill="#ffffff" opacity="1"></path></g><g id="SvgjsG1022" transform="translate(255.33331298828125 239.66666412353516)" opacity="1"><path id="SvgjsPath1023" d="M0 0L208 0L208 53L0 53Z " stroke-dasharray="none" stroke-width="0" stroke="#323232" fill="none" opacity="1"></path><g id="SvgjsG1024" transform="matrix(1 0 0 1 0 10.25)" fill="#ffffff"><text id="SvgjsText1025" font-family="微软雅黑,黑体,Arial,SimSun" fill="#000000" font-size="26" font-weight="normal" font-style="normal" text-anchor="middle" text-decoration="blink" x="104" y="28">1.game发起购买</text></g></g><g id="SvgjsG1026" transform="translate(136.45831298828125 559.1666641235352)" opacity="1"><path id="SvgjsPath1027" d="M0 48.5L115.375 0L230.75 48.5L115.375 97L0 48.5Z " stroke-dasharray="none" stroke="#323232" stroke-width="2" fill="#ffffff" opacity="1"></path><g id="SvgjsG1028" transform="matrix(1 0 0 1 10 17.25)" fill="#ffffff"><text id="SvgjsText1029" font-family="微软雅黑,黑体,Arial,SimSun" fill="#000000" font-size="25" font-weight="normal" font-style="normal" text-anchor="middle" text-decoration="blink" x="105.375" y="26.65625">2. 3rd-CPServer判</text><text id="SvgjsText1030" font-family="微软雅黑,黑体,Arial,SimSun" fill="#000000" font-size="25" font-weight="normal" font-style="normal" text-anchor="middle" text-decoration="blink" x="105.375" y="57.90625">断余额足够?</text></g></g><g id="SvgjsG1031" transform="translate(241.83331298828125 419.66666412353516)" opacity="1"><path id="SvgjsPath1032" d="M6.6000000000000005 0L13.4 0L13.4 132L20 132L10 142L0 132L6.6000000000000005 132L6.6000000000000005 0Z " stroke-dasharray="none" stroke="#323232" stroke-width="2" fill="#ffffff" opacity="1"></path></g><g id="SvgjsG1033" transform="translate(241.83331298828125 661.6666641235352)" opacity="1"><path id="SvgjsPath1034" d="M6.6000000000000005 0L13.4 0L13.4 132L20 132L10 142L0 132L6.6000000000000005 132L6.6000000000000005 0Z " stroke-dasharray="none" stroke="#323232" stroke-width="2" fill="#ffffff" opacity="1"></path></g><g id="SvgjsG1035" transform="translate(91.83331298828125 807.6666641235352)" opacity="1"><path id="SvgjsPath1036" d="M0 0L320 0L320 82L0 82Z " stroke-dasharray="none" stroke="#323232" stroke-width="2" fill="#ffffff" opacity="1"></path><g id="SvgjsG1037" transform="matrix(1 0 0 1 10 8.5)" fill="#ffffff"><text id="SvgjsText1038" font-family="微软雅黑,黑体,Arial,SimSun" fill="#000000" font-size="26" font-weight="normal" font-style="normal" text-anchor="middle" text-decoration="blink" x="150" y="28">3.3rd-CPServer扣除相应货</text><text id="SvgjsText1039" font-family="微软雅黑,黑体,Arial,SimSun" fill="#000000" font-size="26" font-weight="normal" font-style="normal" text-anchor="middle" text-decoration="blink" x="150" y="60.5">币,购买成功，发放道具</text></g></g><g id="SvgjsG1040" transform="translate(108.33331298828125 962.6666641235352)" opacity="1"><path id="SvgjsPath1041" d="M0 0L335 0L335 56.66667938232422L0 56.66667938232422Z " stroke-dasharray="none" stroke-width="0" stroke="#323232" fill="none" opacity="1"></path><g id="SvgjsG1042" transform="matrix(1 0 0 1 0 -4.166660308837891)" fill="#ffffff"><text id="SvgjsText1043" font-family="微软雅黑,黑体,Arial,SimSun" fill="#000099" font-size="26" font-weight="normal" font-style="normal" text-anchor="middle" text-decoration="blink" x="167.5" y="28">Commodity 购买，该过程相</text><text id="SvgjsText1044" font-family="微软雅黑,黑体,Arial,SimSun" fill="#000099" font-size="26" font-weight="normal" font-style="normal" text-anchor="middle" text-decoration="blink" x="167.5" y="60.5">对于GGLY-Server透明</text></g></g><g id="SvgjsG1045" transform="translate(599.3333129882812 42.666664123535156)" opacity="1"><path id="SvgjsPath1046" d="M0 4Q0 0 4 0L604 0Q608 0 608 4L608 1030Q608 1034 604 1034L4 1034Q0 1034 0 1030Z " stroke-dasharray="10 4" stroke="#323232" stroke-width="2" fill="#ffffff" opacity="1"></path></g><g id="SvgjsG1047" transform="translate(737.8333129882812 115.66666412353516)" opacity="1"><path id="SvgjsPath1048" d="M0 0L310.5 0L310.5 67L0 67Z " stroke-dasharray="none" stroke="#323232" stroke-width="2" fill="#ffffff" opacity="1"></path><g id="SvgjsG1049" transform="matrix(1 0 0 1 10 14.75)" fill="#ffffff"><text id="SvgjsText1050" font-family="微软雅黑,黑体,Arial,SimSun" fill="#000000" font-size="30" font-weight="normal" font-style="normal" text-anchor="middle" text-decoration="blink" x="145.25" y="32">GGLY-SDK</text></g></g><g id="SvgjsG1051" transform="translate(255.33331298828125 706.6666641235352)" opacity="1"><path id="SvgjsPath1052" d="M0 0L41 0L41 27L0 27Z " stroke-dasharray="none" stroke-width="0" stroke="#323232" fill="none" opacity="1"></path><g id="SvgjsG1053" transform="matrix(1 0 0 1 0 -2.75)" fill="#ffffff"><text id="SvgjsText1054" font-family="微软雅黑,黑体,Arial,SimSun" fill="#000000" font-size="26" font-weight="normal" font-style="normal" text-anchor="middle" text-decoration="blink" x="20.5" y="28">Y</text></g></g><g id="SvgjsG1055" transform="translate(422.83331298828125 576.1666641235352)" opacity="1"><path id="SvgjsPath1056" d="M0 0L48.125 0L48.125 20L0 20Z " stroke-dasharray="none" stroke-width="0" stroke="#323232" fill="none" opacity="1"></path><g id="SvgjsG1057" transform="matrix(1 0 0 1 0 -6.25)" fill="#ffffff"><text id="SvgjsText1058" font-family="微软雅黑,黑体,Arial,SimSun" fill="#000000" font-size="26" font-weight="normal" font-style="normal" text-anchor="middle" text-decoration="blink" x="24.0625" y="28">N</text></g></g><g id="SvgjsG1059" transform="translate(784.5833129882812 980.6666641235352)" opacity="1"><path id="SvgjsPath1060" d="M0 0L306.75 0L306.75 20.66667938232422L0 20.66667938232422Z " stroke-dasharray="none" stroke-width="0" stroke="#323232" fill="none" opacity="1"></path><g id="SvgjsG1061" transform="matrix(1 0 0 1 0 -5.916660308837891)" fill="#ffffff"><text id="SvgjsText1062" font-family="微软雅黑,黑体,Arial,SimSun" fill="#000000" font-size="26" font-weight="normal" font-style="normal" text-anchor="middle" text-decoration="blink" x="153.375" y="28">货币类Commodity 购买</text></g></g><g id="SvgjsG1063" transform="translate(883.0833129882812 179.66666412353516)" opacity="1"><path id="SvgjsPath1064" d="M6.6000000000000005 0L13.4 0L13.4 149L20 149L10 159L0 149L6.6000000000000005 149L6.6000000000000005 0Z " stroke-dasharray="none" stroke="#323232" stroke-width="2" fill="#ffffff" opacity="1"></path></g><g id="SvgjsG1065" transform="translate(742.0833129882812 338.66666412353516)" opacity="1"><path id="SvgjsPath1066" d="M0 0L302 0L302 67L0 67Z " stroke-dasharray="none" stroke="#323232" stroke-width="2" fill="#ffffff" opacity="1"></path><g id="SvgjsG1067" transform="matrix(1 0 0 1 10 17.25)" fill="#ffffff"><text id="SvgjsText1068" font-family="微软雅黑,黑体,Arial,SimSun" fill="#000000" font-size="26" font-weight="normal" font-style="normal" text-anchor="middle" text-decoration="blink" x="141" y="28">GGLY-Server</text></g></g><g id="SvgjsG1069" transform="translate(892.3333129882812 232.66666412353516)" opacity="1"><path id="SvgjsPath1070" d="M0 0L248 0L248 45L0 45Z " stroke-dasharray="none" stroke-width="0" stroke="#323232" fill="none" opacity="1"></path><g id="SvgjsG1071" transform="matrix(1 0 0 1 0 6.25)" fill="#ffffff"><text id="SvgjsText1072" font-family="微软雅黑,黑体,Arial,SimSun" fill="#000000" font-size="26" font-weight="normal" font-style="normal" text-anchor="middle" text-decoration="blink" x="124" y="28">1.commodity购买</text></g></g><g id="SvgjsG1073"><path id="SvgjsPath1074" d="M893.0833129882812 405.66666412353516L893.0833129882812 475.66666412353516L675.8333129882812 475.66666412353516L675.8333129882812 149.16666412353516L722.5972450107814 149.16666412353516 " stroke-dasharray="none" stroke="#323232" stroke-width="2" fill="none" marker-end="url(#SvgjsMarker1075)"></path><g id="SvgjsG1077" transform="matrix(1 0 0 1 675.8333129882812 424.53469811228507)"><path id="SvgjsPath1078" d="M0 0H0V0H0V0Z " fill="#ffffff" transform="translate(0 0)"></path><text id="SvgjsText1079" font-family="Microsoft Yahei,SimSun" fill="#000000" font-size="13" font-weight="normal" font-style="normal" text-anchor="middle" text-decoration="blink" x="0" y="0"></text></g></g><g id="SvgjsG1080" transform="translate(666.0833129882812 441.66666412353516)" opacity="1"><path id="SvgjsPath1081" d="M0 0L217 0L217 35L0 35Z " stroke-dasharray="none" stroke-width="0" stroke="#323232" fill="none" opacity="1"></path><g id="SvgjsG1082" transform="matrix(1 0 0 1 0 1.25)" fill="#ffffff"><text id="SvgjsText1083" font-family="微软雅黑,黑体,Arial,SimSun" fill="#000000" font-size="26" font-weight="normal" font-style="normal" text-anchor="middle" text-decoration="blink" x="108.5" y="28">支付失败</text></g></g><g id="SvgjsG1084"><path id="SvgjsPath1085" d="M893.0833129882812 405.66666412353516L893.0833129882812 485.16666412353516L893.0833129882812 485.16666412353516L893.0833129882812 549.4305961460353 " stroke-dasharray="none" stroke="#323232" stroke-width="2" fill="none" marker-end="url(#SvgjsMarker1086)"></path><g id="SvgjsG1088" transform="matrix(1 0 0 1 893.0833129882812 469.42363013478524)"><path id="SvgjsPath1089" d="M0 0H0V0H0V0Z " fill="#ffffff" transform="translate(0 0)"></path><text id="SvgjsText1090" font-family="Microsoft Yahei,SimSun" fill="#000000" font-size="13" font-weight="normal" font-style="normal" text-anchor="middle" text-decoration="blink" x="0" y="0"></text></g></g><g id="SvgjsG1091" transform="translate(682.3333129882812 566.1666641235352)" opacity="1"><path id="SvgjsPath1092" d="M0 0L426 0L426 75L0 75Z " stroke-dasharray="none" stroke="#323232" stroke-width="2" fill="#ffffff" opacity="1"></path><g id="SvgjsG1093" transform="matrix(1 0 0 1 10 5)" fill="#ffffff"><text id="SvgjsText1094" font-family="微软雅黑,黑体,Arial,SimSun" fill="#000000" font-size="26" font-weight="normal" font-style="normal" text-anchor="middle" text-decoration="blink" x="203" y="28">2.GGLY-Server通知3rd-CPServer相</text><text id="SvgjsText1095" font-family="微软雅黑,黑体,Arial,SimSun" fill="#000000" font-size="26" font-weight="normal" font-style="normal" text-anchor="middle" text-decoration="blink" x="203" y="60.5">应commodity_id成功</text></g></g><g id="SvgjsG1096" transform="translate(835.0833129882812 498.66666412353516)" opacity="1"><path id="SvgjsPath1097" d="M0 0L217 0L217 35L0 35Z " stroke-dasharray="none" stroke-width="0" stroke="#323232" fill="none" opacity="1"></path><g id="SvgjsG1098" transform="matrix(1 0 0 1 0 1.25)" fill="#ffffff"><text id="SvgjsText1099" font-family="微软雅黑,黑体,Arial,SimSun" fill="#000000" font-size="26" font-weight="normal" font-style="normal" text-anchor="middle" text-decoration="blink" x="108.5" y="28">支付成功</text></g></g><g id="SvgjsG1100" transform="translate(671.5833129882812 814.1666641235352)" opacity="1"><path id="SvgjsPath1101" d="M0 0L447.5 0L447.5 100.5L0 100.5Z " stroke-dasharray="none" stroke="#323232" stroke-width="2" fill="#ffffff" opacity="1"></path><g id="SvgjsG1102" transform="matrix(1 0 0 1 10 1.5)" fill="#ffffff"><text id="SvgjsText1103" font-family="微软雅黑,黑体,Arial,SimSun" fill="#000000" font-size="26" font-weight="normal" font-style="normal" text-anchor="middle" text-decoration="blink" x="213.75" y="28">3.GGLY-Server收到commodity_id购</text><text id="SvgjsText1104" font-family="微软雅黑,黑体,Arial,SimSun" fill="#000000" font-size="26" font-weight="normal" font-style="normal" text-anchor="middle" text-decoration="blink" x="213.75" y="60.5">买成功通知,根据commodity_id来更新</text><text id="SvgjsText1105" font-family="微软雅黑,黑体,Arial,SimSun" fill="#000000" font-size="26" font-weight="normal" font-style="normal" text-anchor="middle" text-decoration="blink" x="213.75" y="93">游戏货币</text></g></g><g id="SvgjsG1106"><path id="SvgjsPath1107" d="M895.3333129882812 641.1666641235352L895.3333129882812 727.6666641235352L895.3333129882812 727.6666641235352L895.3333129882812 798.9305961460353 " stroke-dasharray="none" stroke="#323232" stroke-width="2" fill="none" marker-end="url(#SvgjsMarker1108)"></path><g id="SvgjsG1110" transform="matrix(1 0 0 1 895.3333129882812 711.9236301347853)"><path id="SvgjsPath1111" d="M0 0H0V0H0V0Z " fill="#ffffff" transform="translate(0 0)"></path><text id="SvgjsText1112" font-family="Microsoft Yahei,SimSun" fill="#000000" font-size="13" font-weight="normal" font-style="normal" text-anchor="middle" text-decoration="blink" x="0" y="0"></text></g></g><g id="SvgjsG1113"><path id="SvgjsPath1114" d="M367.20831298828125 607.6666641235352L485.20831298828125 607.6666641235352L485.20831298828125 85.66666412353516L893.0833129882812 85.66666412353516L893.0833129882812 100.43059614603537 " stroke-dasharray="none" stroke="#323232" stroke-width="2" fill="none" marker-end="url(#SvgjsMarker1115)"></path><g id="SvgjsG1117" transform="matrix(1 0 0 1 485.20831298828125 186.222198112285)"><path id="SvgjsPath1118" d="M0 0H0V0H0V0Z " fill="#ffffff" transform="translate(0 0)"></path><text id="SvgjsText1119" font-family="Microsoft Yahei,SimSun" fill="#000000" font-size="13" font-weight="normal" font-style="normal" text-anchor="middle" text-decoration="blink" x="0" y="0"></text></g></g></g></g></svg>