<svg id="drawing" xmlns="http://www.w3.org/2000/svg" version="1.1" xmlns:xlink="http://www.w3.org/1999/xlink" xmlns:svgjs="http://svgjs.com/svgjs" width="1236.75" height="1074" viewBox="-9.41668701171875 22.666664123535156 1236.75 1074"><defs id="SvgjsDefs1113"><marker id="SvgjsMarker1175" markerWidth="16.23606797749979" markerHeight="10.550836550532098" refX="-1" refY="3.8990363547948754" viewBox="-1 -1.3763819204711738 16.23606797749979 10.550836550532098" orient="auto" markerUnits="userSpaceOnUse"><path id="SvgjsPath1176" d="M12 3.8990363547948754L0 7.798072709589751V0Z " stroke="#323232" stroke-width="2" fill="#323232" transform="matrix(1,0,0,1,0,0)"></path></marker><marker id="SvgjsMarker1186" markerWidth="16.23606797749979" markerHeight="10.550836550532098" refX="-1" refY="3.8990363547948754" viewBox="-1 -1.3763819204711738 16.23606797749979 10.550836550532098" orient="auto" markerUnits="userSpaceOnUse"><path id="SvgjsPath1187" d="M12 3.8990363547948754L0 7.798072709589751V0Z " stroke="#323232" stroke-width="2" fill="#323232" transform="matrix(1,0,0,1,0,0)"></path></marker><marker id="SvgjsMarker1207" markerWidth="16.23606797749979" markerHeight="10.550836550532098" refX="-1" refY="3.8990363547948754" viewBox="-1 -1.3763819204711738 16.23606797749979 10.550836550532098" orient="auto" markerUnits="userSpaceOnUse"><path id="SvgjsPath1208" d="M12 3.8990363547948754L0 7.798072709589751V0Z " stroke="#323232" stroke-width="2" fill="#323232" transform="matrix(1,0,0,1,0,0)"></path></marker><marker id="SvgjsMarker1214" markerWidth="16.23606797749979" markerHeight="10.550836550532098" refX="-1" refY="3.8990363547948754" viewBox="-1 -1.3763819204711738 16.23606797749979 10.550836550532098" orient="auto" markerUnits="userSpaceOnUse"><path id="SvgjsPath1215" d="M12 3.8990363547948754L0 7.798072709589751V0Z " stroke="#323232" stroke-width="2" fill="#323232" transform="matrix(1,0,0,1,0,0)"></path></marker></defs><g id="SvgjsG1114"><path id="SvgjsPath1115" d="M-9.41668701171875 22.666664123535156H1227.3333129882812V1096.6666641235352H-9.41668701171875V22.666664123535156Z " fill-opacity="0" fill="none"></path><g id="SvgjsG1116"><g id="SvgjsG1117" transform="translate(40.83331298828125 42.666664123535156)" opacity="1"><path id="SvgjsPath1118" d="M0 4Q0 0 4 0L507.5 0Q511.5 0 511.5 4L511.5 1030Q511.5 1034 507.5 1034L4 1034Q0 1034 0 1030Z " stroke-dasharray="10 4" stroke="#323232" stroke-width="2" fill="#ffffff" opacity="1"></path></g><g id="SvgjsG1119" transform="translate(100.83331298828125 115.66666412353516)" opacity="1"><path id="SvgjsPath1120" d="M0 0L302 0L302 75L0 75Z " stroke-dasharray="none" stroke="#323232" stroke-width="2" fill="#ffffff" opacity="1"></path><g id="SvgjsG1121" transform="matrix(1 0 0 1 10 18.75)" fill="#ffffff"><text id="SvgjsText1122" font-family="微软雅黑,黑体,Arial,SimSun" fill="#000000" font-size="30" font-weight="normal" font-style="normal" text-anchor="middle" text-decoration="blink" x="141" y="32">Game</text></g></g><g id="SvgjsG1123" transform="translate(241.83331298828125 190.66666412353516)" opacity="1"><path id="SvgjsPath1124" d="M6.6000000000000005 0L13.4 0L13.4 252L20 252L10 262L0 252L6.6000000000000005 252L6.6000000000000005 0Z " stroke-dasharray="none" stroke="#323232" stroke-width="2" fill="#ffffff" opacity="1"></path></g><g id="SvgjsG1125" transform="translate(10.58331298828125 285.66666412353516)" opacity="1"><path id="SvgjsPath1126" d="M0 0L326.5 0L326.5 20L0 20Z " stroke-dasharray="none" stroke-width="0" stroke="#323232" fill="none" opacity="1"></path><g id="SvgjsG1127" transform="matrix(1 0 0 1 0 -22.5)" fill="#ffffff"><text id="SvgjsText1128" font-family="微软雅黑,黑体,Arial,SimSun" fill="#000000" font-size="26" font-weight="normal" font-style="normal" text-anchor="middle" text-decoration="blink" x="163.25" y="28">1.game获取</text><text id="SvgjsText1129" font-family="微软雅黑,黑体,Arial,SimSun" fill="#000000" font-size="26" font-weight="normal" font-style="normal" text-anchor="middle" text-decoration="blink" x="163.25" y="60.5">commodity</text></g></g><g id="SvgjsG1130" transform="translate(136.45831298828125 452.66666412353516)" opacity="1"><path id="SvgjsPath1131" d="M0 48.5L115.375 0L230.75 48.5L115.375 97L0 48.5Z " stroke-dasharray="none" stroke="#323232" stroke-width="2" fill="#ffffff" opacity="1"></path><g id="SvgjsG1132" transform="matrix(1 0 0 1 10 32.25)" fill="#ffffff"><text id="SvgjsText1133" font-family="微软雅黑,黑体,Arial,SimSun" fill="#000000" font-size="26" font-weight="normal" font-style="normal" text-anchor="middle" text-decoration="blink" x="105.375" y="28">2.已购买?</text></g></g><g id="SvgjsG1134" transform="translate(241.83331298828125 549.6666641235352)" opacity="1"><path id="SvgjsPath1135" d="M6.6000000000000005 0L13.4 0L13.4 174L20 174L10 184L0 174L6.6000000000000005 174L6.6000000000000005 0Z " stroke-dasharray="none" stroke="#323232" stroke-width="2" fill="#ffffff" opacity="1"></path></g><g id="SvgjsG1136" transform="translate(91.83331298828125 736.6666641235352)" opacity="1"><path id="SvgjsPath1137" d="M0 0L320 0L320 82L0 82Z " stroke-dasharray="none" stroke="#323232" stroke-width="2" fill="#ffffff" opacity="1"></path><g id="SvgjsG1138" transform="matrix(1 0 0 1 10 8.5)" fill="#ffffff"><text id="SvgjsText1139" font-family="微软雅黑,黑体,Arial,SimSun" fill="#000000" font-size="26" font-weight="normal" font-style="normal" text-anchor="middle" text-decoration="blink" x="150" y="28">3.CPServer发放commod</text><text id="SvgjsText1140" font-family="微软雅黑,黑体,Arial,SimSun" fill="#000000" font-size="26" font-weight="normal" font-style="normal" text-anchor="middle" text-decoration="blink" x="150" y="60.5">ity</text></g></g><g id="SvgjsG1141" transform="translate(164.33331298828125 923.6666641235352)" opacity="1"><path id="SvgjsPath1142" d="M0 0L217 0L217 35L0 35Z " stroke-dasharray="none" stroke-width="0" stroke="#323232" fill="none" opacity="1"></path><g id="SvgjsG1143" transform="matrix(1 0 0 1 0 1.25)" fill="#ffffff"><text id="SvgjsText1144" font-family="微软雅黑,黑体,Arial,SimSun" fill="#000000" font-size="26" font-weight="normal" font-style="normal" text-anchor="middle" text-decoration="blink" x="108.5" y="28">Commodity 获取</text></g></g><g id="SvgjsG1145" transform="translate(599.3333129882812 42.666664123535156)" opacity="1"><path id="SvgjsPath1146" d="M0 4Q0 0 4 0L604 0Q608 0 608 4L608 1030Q608 1034 604 1034L4 1034Q0 1034 0 1030Z " stroke-dasharray="10 4" stroke="#323232" stroke-width="2" fill="#ffffff" opacity="1"></path></g><g id="SvgjsG1147" transform="translate(737.8333129882812 115.66666412353516)" opacity="1"><path id="SvgjsPath1148" d="M0 0L310.5 0L310.5 67L0 67Z " stroke-dasharray="none" stroke="#323232" stroke-width="2" fill="#ffffff" opacity="1"></path><g id="SvgjsG1149" transform="matrix(1 0 0 1 10 14.75)" fill="#ffffff"><text id="SvgjsText1150" font-family="微软雅黑,黑体,Arial,SimSun" fill="#000000" font-size="30" font-weight="normal" font-style="normal" text-anchor="middle" text-decoration="blink" x="145.25" y="32">GGLY-SDK</text></g></g><g id="SvgjsG1151" transform="translate(252.33331298828125 631.6666641235352)" opacity="1"><path id="SvgjsPath1152" d="M0 0L41 0L41 27L0 27Z " stroke-dasharray="none" stroke-width="0" stroke="#323232" fill="none" opacity="1"></path><g id="SvgjsG1153" transform="matrix(1 0 0 1 0 -2.75)" fill="#ffffff"><text id="SvgjsText1154" font-family="微软雅黑,黑体,Arial,SimSun" fill="#000000" font-size="26" font-weight="normal" font-style="normal" text-anchor="middle" text-decoration="blink" x="20.5" y="28">Y</text></g></g><g id="SvgjsG1155" transform="translate(429.83331298828125 300.66666412353516)" opacity="1"><path id="SvgjsPath1156" d="M0 0L48.125 0L48.125 20L0 20Z " stroke-dasharray="none" stroke-width="0" stroke="#323232" fill="none" opacity="1"></path><g id="SvgjsG1157" transform="matrix(1 0 0 1 0 -6.25)" fill="#ffffff"><text id="SvgjsText1158" font-family="微软雅黑,黑体,Arial,SimSun" fill="#000000" font-size="26" font-weight="normal" font-style="normal" text-anchor="middle" text-decoration="blink" x="24.0625" y="28">N</text></g></g><g id="SvgjsG1159" transform="translate(800.0833129882812 928.6666641235352)" opacity="1"><path id="SvgjsPath1160" d="M0 0L217 0L217 35L0 35Z " stroke-dasharray="none" stroke-width="0" stroke="#323232" fill="none" opacity="1"></path><g id="SvgjsG1161" transform="matrix(1 0 0 1 0 1.25)" fill="#ffffff"><text id="SvgjsText1162" font-family="微软雅黑,黑体,Arial,SimSun" fill="#000000" font-size="26" font-weight="normal" font-style="normal" text-anchor="middle" text-decoration="blink" x="108.5" y="28">Commodity 购买</text></g></g><g id="SvgjsG1163" transform="translate(883.0833129882812 179.66666412353516)" opacity="1"><path id="SvgjsPath1164" d="M6.6000000000000005 0L13.4 0L13.4 149L20 149L10 159L0 149L6.6000000000000005 149L6.6000000000000005 0Z " stroke-dasharray="none" stroke="#323232" stroke-width="2" fill="#ffffff" opacity="1"></path></g><g id="SvgjsG1165" transform="translate(742.0833129882812 338.66666412353516)" opacity="1"><path id="SvgjsPath1166" d="M0 0L302 0L302 67L0 67Z " stroke-dasharray="none" stroke="#323232" stroke-width="2" fill="#ffffff" opacity="1"></path><g id="SvgjsG1167" transform="matrix(1 0 0 1 10 17.25)" fill="#ffffff"><text id="SvgjsText1168" font-family="微软雅黑,黑体,Arial,SimSun" fill="#000000" font-size="26" font-weight="normal" font-style="normal" text-anchor="middle" text-decoration="blink" x="141" y="28">GGLY-Server</text></g></g><g id="SvgjsG1169" transform="translate(889.3333129882812 228.66666412353516)" opacity="1"><path id="SvgjsPath1170" d="M0 0L243 0L243 46L0 46Z " stroke-dasharray="none" stroke-width="0" stroke="#323232" fill="none" opacity="1"></path><g id="SvgjsG1171" transform="matrix(1 0 0 1 0 6.75)" fill="#ffffff"><text id="SvgjsText1172" font-family="微软雅黑,黑体,Arial,SimSun" fill="#000000" font-size="26" font-weight="normal" font-style="normal" text-anchor="middle" text-decoration="blink" x="121.5" y="28">1.commodity购买</text></g></g><g id="SvgjsG1173"><path id="SvgjsPath1174" d="M893.0833129882812 405.66666412353516L893.0833129882812 475.66666412353516L675.8333129882812 475.66666412353516L675.8333129882812 149.16666412353516L722.5972450107814 149.16666412353516 " stroke-dasharray="none" stroke="#323232" stroke-width="2" fill="none" marker-end="url(#SvgjsMarker1175)"></path><g id="SvgjsG1177" transform="matrix(1 0 0 1 675.8333129882812 424.53469811228507)"><path id="SvgjsPath1178" d="M0 0H0V0H0V0Z " fill="#ffffff" transform="translate(0 0)"></path><text id="SvgjsText1179" font-family="Microsoft Yahei,SimSun" fill="#000000" font-size="13" font-weight="normal" font-style="normal" text-anchor="middle" text-decoration="blink" x="0" y="0"></text></g></g><g id="SvgjsG1180" transform="translate(666.0833129882812 441.66666412353516)" opacity="1"><path id="SvgjsPath1181" d="M0 0L217 0L217 35L0 35Z " stroke-dasharray="none" stroke-width="0" stroke="#323232" fill="none" opacity="1"></path><g id="SvgjsG1182" transform="matrix(1 0 0 1 0 1.25)" fill="#ffffff"><text id="SvgjsText1183" font-family="微软雅黑,黑体,Arial,SimSun" fill="#000000" font-size="26" font-weight="normal" font-style="normal" text-anchor="middle" text-decoration="blink" x="108.5" y="28">支付失败</text></g></g><g id="SvgjsG1184"><path id="SvgjsPath1185" d="M893.0833129882812 405.66666412353516L893.0833129882812 485.16666412353516L893.0833129882812 485.16666412353516L893.0833129882812 549.4305961460353 " stroke-dasharray="none" stroke="#323232" stroke-width="2" fill="none" marker-end="url(#SvgjsMarker1186)"></path><g id="SvgjsG1188" transform="matrix(1 0 0 1 893.0833129882812 469.42363013478524)"><path id="SvgjsPath1189" d="M0 0H0V0H0V0Z " fill="#ffffff" transform="translate(0 0)"></path><text id="SvgjsText1190" font-family="Microsoft Yahei,SimSun" fill="#000000" font-size="13" font-weight="normal" font-style="normal" text-anchor="middle" text-decoration="blink" x="0" y="0"></text></g></g><g id="SvgjsG1191" transform="translate(706.3333129882812 570.1666641235352)" opacity="1"><path id="SvgjsPath1192" d="M0 0L368.5 0L368.5 79.5L0 79.5Z " stroke-dasharray="none" stroke="#323232" stroke-width="2" fill="#ffffff" opacity="1"></path><g id="SvgjsG1193" transform="matrix(1 0 0 1 10 7.25)" fill="#ffffff"><text id="SvgjsText1194" font-family="微软雅黑,黑体,Arial,SimSun" fill="#000000" font-size="26" font-weight="normal" font-style="normal" text-anchor="middle" text-decoration="blink" x="174.25" y="28">3.GGLY-Server通知CPServer</text><text id="SvgjsText1195" font-family="微软雅黑,黑体,Arial,SimSun" fill="#000000" font-size="26" font-weight="normal" font-style="normal" text-anchor="middle" text-decoration="blink" x="174.25" y="60.5">相应commodity成功</text></g></g><g id="SvgjsG1196" transform="translate(870.0833129882812 482.66666412353516)" opacity="1"><path id="SvgjsPath1197" d="M0 0L289.25 0L289.25 43L0 43Z " stroke-dasharray="none" stroke-width="0" stroke="#323232" fill="none" opacity="1"></path><g id="SvgjsG1198" transform="matrix(1 0 0 1 0 5.25)" fill="#ffffff"><text id="SvgjsText1199" font-family="微软雅黑,黑体,Arial,SimSun" fill="#000000" font-size="26" font-weight="normal" font-style="normal" text-anchor="middle" text-decoration="blink" x="144.625" y="28">2.支付或扣积分成功</text></g></g><g id="SvgjsG1200" transform="translate(712.3333129882812 806.6666641235352)" opacity="1"><path id="SvgjsPath1201" d="M0 0L356.5 0L356.5 78L0 78Z " stroke-dasharray="none" stroke="#323232" stroke-width="2" fill="#ffffff" opacity="1"></path><g id="SvgjsG1202" transform="matrix(1 0 0 1 10 6.5)" fill="#ffffff"><text id="SvgjsText1203" font-family="微软雅黑,黑体,Arial,SimSun" fill="#000000" font-size="26" font-weight="normal" font-style="normal" text-anchor="middle" text-decoration="blink" x="168.25" y="28">4.CPServer收到通知更新游戏</text><text id="SvgjsText1204" font-family="微软雅黑,黑体,Arial,SimSun" fill="#000000" font-size="26" font-weight="normal" font-style="normal" text-anchor="middle" text-decoration="blink" x="168.25" y="60.5">用户的commodity</text></g></g><g id="SvgjsG1205"><path id="SvgjsPath1206" d="M890.5833129882812 649.6666641235352L890.5833129882812 728.1666641235352L890.5833129882812 728.1666641235352L890.5833129882812 791.4305961460353 " stroke-dasharray="none" stroke="#323232" stroke-width="2" fill="none" marker-end="url(#SvgjsMarker1207)"></path><g id="SvgjsG1209" transform="matrix(1 0 0 1 890.5833129882812 712.4236301347853)"><path id="SvgjsPath1210" d="M0 0H0V0H0V0Z " fill="#ffffff" transform="translate(0 0)"></path><text id="SvgjsText1211" font-family="Microsoft Yahei,SimSun" fill="#000000" font-size="13" font-weight="normal" font-style="normal" text-anchor="middle" text-decoration="blink" x="0" y="0"></text></g></g><g id="SvgjsG1212"><path id="SvgjsPath1213" d="M367.20831298828125 501.16666412353516L476.20831298828125 501.16666412353516L476.20831298828125 88.66666412353516L893.0833129882812 88.66666412353516L893.0833129882812 100.43059614603537 " stroke-dasharray="none" stroke="#323232" stroke-width="2" fill="none" marker-end="url(#SvgjsMarker1214)"></path><g id="SvgjsG1216" transform="matrix(1 0 0 1 476.20831298828125 126.97219811228507)"><path id="SvgjsPath1217" d="M0 0H0V0H0V0Z " fill="#ffffff" transform="translate(0 0)"></path><text id="SvgjsText1218" font-family="Microsoft Yahei,SimSun" fill="#000000" font-size="13" font-weight="normal" font-style="normal" text-anchor="middle" text-decoration="blink" x="0" y="0"></text></g></g></g></g></svg>