<svg id="drawing" xmlns="http://www.w3.org/2000/svg" version="1.1" xmlns:xlink="http://www.w3.org/1999/xlink" xmlns:svgjs="http://svgjs.com/svgjs" width="1206.5" height="1074" viewBox="20.83331298828125 22.666664123535156 1206.5 1074"><defs id="SvgjsDefs1001"><marker id="SvgjsMarker1068" markerWidth="16.23606797749979" markerHeight="10.550836550532098" refX="-1" refY="3.8990363547948754" viewBox="-1 -1.3763819204711738 16.23606797749979 10.550836550532098" orient="auto" markerUnits="userSpaceOnUse"><path id="SvgjsPath1069" d="M12 3.8990363547948754L0 7.798072709589751V0Z " stroke="#323232" stroke-width="2" fill="#323232" transform="matrix(1,0,0,1,0,0)"></path></marker><marker id="SvgjsMarker1079" markerWidth="16.23606797749979" markerHeight="10.550836550532098" refX="-1" refY="3.8990363547948754" viewBox="-1 -1.3763819204711738 16.23606797749979 10.550836550532098" orient="auto" markerUnits="userSpaceOnUse"><path id="SvgjsPath1080" d="M12 3.8990363547948754L0 7.798072709589751V0Z " stroke="#323232" stroke-width="2" fill="#323232" transform="matrix(1,0,0,1,0,0)"></path></marker><marker id="SvgjsMarker1100" markerWidth="16.23606797749979" markerHeight="10.550836550532098" refX="-1" refY="3.8990363547948754" viewBox="-1 -1.3763819204711738 16.23606797749979 10.550836550532098" orient="auto" markerUnits="userSpaceOnUse"><path id="SvgjsPath1101" d="M12 3.8990363547948754L0 7.798072709589751V0Z " stroke="#323232" stroke-width="2" fill="#323232" transform="matrix(1,0,0,1,0,0)"></path></marker><marker id="SvgjsMarker1107" markerWidth="16.23606797749979" markerHeight="10.550836550532098" refX="-1" refY="3.8990363547948754" viewBox="-1 -1.3763819204711738 16.23606797749979 10.550836550532098" orient="auto" markerUnits="userSpaceOnUse"><path id="SvgjsPath1108" d="M12 3.8990363547948754L0 7.798072709589751V0Z " stroke="#323232" stroke-width="2" fill="#323232" transform="matrix(1,0,0,1,0,0)"></path></marker></defs><g id="SvgjsG1007"><path id="SvgjsPath1008" d="M20.83331298828125 22.666664123535156H1227.3333129882812V1096.6666641235352H20.83331298828125V22.666664123535156Z " fill-opacity="0" fill="none"></path><g id="SvgjsG1009"><g id="SvgjsG1010" transform="translate(40.83331298828125 42.666664123535156)" opacity="1"><path id="SvgjsPath1011" d="M0 4Q0 0 4 0L507.5 0Q511.5 0 511.5 4L511.5 1030Q511.5 1034 507.5 1034L4 1034Q0 1034 0 1030Z " stroke-dasharray="10 4" stroke="#323232" stroke-width="2" fill="#ffffff" opacity="1"></path></g><g id="SvgjsG1012" transform="translate(100.83331298828125 115.66666412353516)" opacity="1"><path id="SvgjsPath1013" d="M0 0L302 0L302 75L0 75Z " stroke-dasharray="none" stroke="#323232" stroke-width="2" fill="#ffffff" opacity="1"></path><g id="SvgjsG1014" transform="matrix(1 0 0 1 10 18.75)" fill="#ffffff"><text id="SvgjsText1015" font-family="微软雅黑,黑体,Arial,SimSun" fill="#000000" font-size="30" font-weight="normal" font-style="normal" text-anchor="middle" text-decoration="blink" x="141" y="32">Game</text></g></g><g id="SvgjsG1016" transform="translate(241.83331298828125 190.66666412353516)" opacity="1"><path id="SvgjsPath1017" d="M6.6000000000000005 0L13.4 0L13.4 252L20 252L10 262L0 252L6.6000000000000005 252L6.6000000000000005 0Z " stroke-dasharray="none" stroke="#323232" stroke-width="2" fill="#ffffff" opacity="1"></path></g><g id="SvgjsG1018" transform="translate(48.83331298828125 274.66666412353516)" opacity="1"><path id="SvgjsPath1019" d="M0 0L208 0L208 53L0 53Z " stroke-dasharray="none" stroke-width="0" stroke="#323232" fill="none" opacity="1"></path><g id="SvgjsG1020" transform="matrix(1 0 0 1 0 -6)" fill="#ffffff"><text id="SvgjsText1021" font-family="微软雅黑,黑体,Arial,SimSun" fill="#000000" font-size="26" font-weight="normal" font-style="normal" text-anchor="middle" text-decoration="blink" x="104" y="28">1.game获取comm</text><text id="SvgjsText1022" font-family="微软雅黑,黑体,Arial,SimSun" fill="#000000" font-size="26" font-weight="normal" font-style="normal" text-anchor="middle" text-decoration="blink" x="104" y="60.5">odity</text></g></g><g id="SvgjsG1023" transform="translate(136.45831298828125 452.66666412353516)" opacity="1"><path id="SvgjsPath1024" d="M0 48.5L115.375 0L230.75 48.5L115.375 97L0 48.5Z " stroke-dasharray="none" stroke="#323232" stroke-width="2" fill="#ffffff" opacity="1"></path><g id="SvgjsG1025" transform="matrix(1 0 0 1 10 32.25)" fill="#ffffff"><text id="SvgjsText1026" font-family="微软雅黑,黑体,Arial,SimSun" fill="#000000" font-size="26" font-weight="normal" font-style="normal" text-anchor="middle" text-decoration="blink" x="105.375" y="28">2.已购买?</text></g></g><g id="SvgjsG1027" transform="translate(241.83331298828125 549.6666641235352)" opacity="1"><path id="SvgjsPath1028" d="M6.6000000000000005 0L13.4 0L13.4 174L20 174L10 184L0 174L6.6000000000000005 174L6.6000000000000005 0Z " stroke-dasharray="none" stroke="#323232" stroke-width="2" fill="#ffffff" opacity="1"></path></g><g id="SvgjsG1029" transform="translate(91.83331298828125 736.6666641235352)" opacity="1"><path id="SvgjsPath1030" d="M0 0L320 0L320 82L0 82Z " stroke-dasharray="none" stroke="#323232" stroke-width="2" fill="#ffffff" opacity="1"></path><g id="SvgjsG1031" transform="matrix(1 0 0 1 10 8.5)" fill="#ffffff"><text id="SvgjsText1032" font-family="微软雅黑,黑体,Arial,SimSun" fill="#000000" font-size="26" font-weight="normal" font-style="normal" text-anchor="middle" text-decoration="blink" x="150" y="28">3.CPServer发放commod</text><text id="SvgjsText1033" font-family="微软雅黑,黑体,Arial,SimSun" fill="#000000" font-size="26" font-weight="normal" font-style="normal" text-anchor="middle" text-decoration="blink" x="150" y="60.5">ity</text></g></g><g id="SvgjsG1034" transform="translate(164.33331298828125 923.6666641235352)" opacity="1"><path id="SvgjsPath1035" d="M0 0L217 0L217 35L0 35Z " stroke-dasharray="none" stroke-width="0" stroke="#323232" fill="none" opacity="1"></path><g id="SvgjsG1036" transform="matrix(1 0 0 1 0 1.25)" fill="#ffffff"><text id="SvgjsText1037" font-family="微软雅黑,黑体,Arial,SimSun" fill="#000000" font-size="26" font-weight="normal" font-style="normal" text-anchor="middle" text-decoration="blink" x="108.5" y="28">Commodity 获取</text></g></g><g id="SvgjsG1038" transform="translate(599.3333129882812 42.666664123535156)" opacity="1"><path id="SvgjsPath1039" d="M0 4Q0 0 4 0L604 0Q608 0 608 4L608 1030Q608 1034 604 1034L4 1034Q0 1034 0 1030Z " stroke-dasharray="10 4" stroke="#323232" stroke-width="2" fill="#ffffff" opacity="1"></path></g><g id="SvgjsG1040" transform="translate(737.8333129882812 115.66666412353516)" opacity="1"><path id="SvgjsPath1041" d="M0 0L310.5 0L310.5 67L0 67Z " stroke-dasharray="none" stroke="#323232" stroke-width="2" fill="#ffffff" opacity="1"></path><g id="SvgjsG1042" transform="matrix(1 0 0 1 10 14.75)" fill="#ffffff"><text id="SvgjsText1043" font-family="微软雅黑,黑体,Arial,SimSun" fill="#000000" font-size="30" font-weight="normal" font-style="normal" text-anchor="middle" text-decoration="blink" x="145.25" y="32">GGLY-SDK</text></g></g><g id="SvgjsG1044" transform="translate(252.33331298828125 631.6666641235352)" opacity="1"><path id="SvgjsPath1045" d="M0 0L41 0L41 27L0 27Z " stroke-dasharray="none" stroke-width="0" stroke="#323232" fill="none" opacity="1"></path><g id="SvgjsG1046" transform="matrix(1 0 0 1 0 -2.75)" fill="#ffffff"><text id="SvgjsText1047" font-family="微软雅黑,黑体,Arial,SimSun" fill="#000000" font-size="26" font-weight="normal" font-style="normal" text-anchor="middle" text-decoration="blink" x="20.5" y="28">Y</text></g></g><g id="SvgjsG1048" transform="translate(429.83331298828125 300.66666412353516)" opacity="1"><path id="SvgjsPath1049" d="M0 0L48.125 0L48.125 20L0 20Z " stroke-dasharray="none" stroke-width="0" stroke="#323232" fill="none" opacity="1"></path><g id="SvgjsG1050" transform="matrix(1 0 0 1 0 -6.25)" fill="#ffffff"><text id="SvgjsText1051" font-family="微软雅黑,黑体,Arial,SimSun" fill="#000000" font-size="26" font-weight="normal" font-style="normal" text-anchor="middle" text-decoration="blink" x="24.0625" y="28">N</text></g></g><g id="SvgjsG1052" transform="translate(800.0833129882812 928.6666641235352)" opacity="1"><path id="SvgjsPath1053" d="M0 0L217 0L217 35L0 35Z " stroke-dasharray="none" stroke-width="0" stroke="#323232" fill="none" opacity="1"></path><g id="SvgjsG1054" transform="matrix(1 0 0 1 0 1.25)" fill="#ffffff"><text id="SvgjsText1055" font-family="微软雅黑,黑体,Arial,SimSun" fill="#000000" font-size="26" font-weight="normal" font-style="normal" text-anchor="middle" text-decoration="blink" x="108.5" y="28">Commodity 购买</text></g></g><g id="SvgjsG1056" transform="translate(883.0833129882812 179.66666412353516)" opacity="1"><path id="SvgjsPath1057" d="M6.6000000000000005 0L13.4 0L13.4 149L20 149L10 159L0 149L6.6000000000000005 149L6.6000000000000005 0Z " stroke-dasharray="none" stroke="#323232" stroke-width="2" fill="#ffffff" opacity="1"></path></g><g id="SvgjsG1058" transform="translate(742.0833129882812 338.66666412353516)" opacity="1"><path id="SvgjsPath1059" d="M0 0L302 0L302 67L0 67Z " stroke-dasharray="none" stroke="#323232" stroke-width="2" fill="#ffffff" opacity="1"></path><g id="SvgjsG1060" transform="matrix(1 0 0 1 10 17.25)" fill="#ffffff"><text id="SvgjsText1061" font-family="微软雅黑,黑体,Arial,SimSun" fill="#000000" font-size="26" font-weight="normal" font-style="normal" text-anchor="middle" text-decoration="blink" x="141" y="28">GGLY-Server</text></g></g><g id="SvgjsG1062" transform="translate(889.3333129882812 228.66666412353516)" opacity="1"><path id="SvgjsPath1063" d="M0 0L243 0L243 46L0 46Z " stroke-dasharray="none" stroke-width="0" stroke="#323232" fill="none" opacity="1"></path><g id="SvgjsG1064" transform="matrix(1 0 0 1 0 6.75)" fill="#ffffff"><text id="SvgjsText1065" font-family="微软雅黑,黑体,Arial,SimSun" fill="#000000" font-size="26" font-weight="normal" font-style="normal" text-anchor="middle" text-decoration="blink" x="121.5" y="28">1.commodity购买</text></g></g><g id="SvgjsG1066"><path id="SvgjsPath1067" d="M893.0833129882812 405.66666412353516L893.0833129882812 475.66666412353516L675.8333129882812 475.66666412353516L675.8333129882812 149.16666412353516L722.5972450107814 149.16666412353516 " stroke-dasharray="none" stroke="#323232" stroke-width="2" fill="none" marker-end="url(#SvgjsMarker1068)"></path><g id="SvgjsG1070" transform="matrix(1 0 0 1 675.8333129882812 424.53469811228507)"><path id="SvgjsPath1071" d="M0 0H0V0H0V0Z " fill="#ffffff" transform="translate(0 0)"></path><text id="SvgjsText1072" font-family="Microsoft Yahei,SimSun" fill="#000000" font-size="13" font-weight="normal" font-style="normal" text-anchor="middle" text-decoration="blink" x="0" y="0"></text></g></g><g id="SvgjsG1073" transform="translate(666.0833129882812 441.66666412353516)" opacity="1"><path id="SvgjsPath1074" d="M0 0L217 0L217 35L0 35Z " stroke-dasharray="none" stroke-width="0" stroke="#323232" fill="none" opacity="1"></path><g id="SvgjsG1075" transform="matrix(1 0 0 1 0 1.25)" fill="#ffffff"><text id="SvgjsText1076" font-family="微软雅黑,黑体,Arial,SimSun" fill="#000000" font-size="26" font-weight="normal" font-style="normal" text-anchor="middle" text-decoration="blink" x="108.5" y="28">支付失败</text></g></g><g id="SvgjsG1077"><path id="SvgjsPath1078" d="M893.0833129882812 405.66666412353516L893.0833129882812 485.16666412353516L893.0833129882812 485.16666412353516L893.0833129882812 549.4305961460353 " stroke-dasharray="none" stroke="#323232" stroke-width="2" fill="none" marker-end="url(#SvgjsMarker1079)"></path><g id="SvgjsG1081" transform="matrix(1 0 0 1 893.0833129882812 469.42363013478524)"><path id="SvgjsPath1082" d="M0 0H0V0H0V0Z " fill="#ffffff" transform="translate(0 0)"></path><text id="SvgjsText1083" font-family="Microsoft Yahei,SimSun" fill="#000000" font-size="13" font-weight="normal" font-style="normal" text-anchor="middle" text-decoration="blink" x="0" y="0"></text></g></g><g id="SvgjsG1084" transform="translate(706.3333129882812 570.1666641235352)" opacity="1"><path id="SvgjsPath1085" d="M0 0L368.5 0L368.5 79.5L0 79.5Z " stroke-dasharray="none" stroke="#323232" stroke-width="2" fill="#ffffff" opacity="1"></path><g id="SvgjsG1086" transform="matrix(1 0 0 1 10 7.25)" fill="#ffffff"><text id="SvgjsText1087" font-family="微软雅黑,黑体,Arial,SimSun" fill="#000000" font-size="26" font-weight="normal" font-style="normal" text-anchor="middle" text-decoration="blink" x="174.25" y="28">3.GGLY-Server通知CPServer</text><text id="SvgjsText1088" font-family="微软雅黑,黑体,Arial,SimSun" fill="#000000" font-size="26" font-weight="normal" font-style="normal" text-anchor="middle" text-decoration="blink" x="174.25" y="60.5">相应commodity成功</text></g></g><g id="SvgjsG1089" transform="translate(870.0833129882812 482.66666412353516)" opacity="1"><path id="SvgjsPath1090" d="M0 0L289.25 0L289.25 43L0 43Z " stroke-dasharray="none" stroke-width="0" stroke="#323232" fill="none" opacity="1"></path><g id="SvgjsG1091" transform="matrix(1 0 0 1 0 5.25)" fill="#ffffff"><text id="SvgjsText1092" font-family="微软雅黑,黑体,Arial,SimSun" fill="#000000" font-size="26" font-weight="normal" font-style="normal" text-anchor="middle" text-decoration="blink" x="144.625" y="28">2.支付或扣积分成功</text></g></g><g id="SvgjsG1093" transform="translate(712.3333129882812 806.6666641235352)" opacity="1"><path id="SvgjsPath1094" d="M0 0L356.5 0L356.5 78L0 78Z " stroke-dasharray="none" stroke="#323232" stroke-width="2" fill="#ffffff" opacity="1"></path><g id="SvgjsG1095" transform="matrix(1 0 0 1 10 6.5)" fill="#ffffff"><text id="SvgjsText1096" font-family="微软雅黑,黑体,Arial,SimSun" fill="#000000" font-size="26" font-weight="normal" font-style="normal" text-anchor="middle" text-decoration="blink" x="168.25" y="28">4.CPServer收到通知更新游戏</text><text id="SvgjsText1097" font-family="微软雅黑,黑体,Arial,SimSun" fill="#000000" font-size="26" font-weight="normal" font-style="normal" text-anchor="middle" text-decoration="blink" x="168.25" y="60.5">用户的commodity</text></g></g><g id="SvgjsG1098"><path id="SvgjsPath1099" d="M890.5833129882812 649.6666641235352L890.5833129882812 728.1666641235352L890.5833129882812 728.1666641235352L890.5833129882812 791.4305961460353 " stroke-dasharray="none" stroke="#323232" stroke-width="2" fill="none" marker-end="url(#SvgjsMarker1100)"></path><g id="SvgjsG1102" transform="matrix(1 0 0 1 890.5833129882812 712.4236301347853)"><path id="SvgjsPath1103" d="M0 0H0V0H0V0Z " fill="#ffffff" transform="translate(0 0)"></path><text id="SvgjsText1104" font-family="Microsoft Yahei,SimSun" fill="#000000" font-size="13" font-weight="normal" font-style="normal" text-anchor="middle" text-decoration="blink" x="0" y="0"></text></g></g><g id="SvgjsG1105"><path id="SvgjsPath1106" d="M367.20831298828125 501.16666412353516L476.20831298828125 501.16666412353516L476.20831298828125 88.66666412353516L893.0833129882812 88.66666412353516L893.0833129882812 100.43059614603537 " stroke-dasharray="none" stroke="#323232" stroke-width="2" fill="none" marker-end="url(#SvgjsMarker1107)"></path><g id="SvgjsG1109" transform="matrix(1 0 0 1 476.20831298828125 126.97219811228507)"><path id="SvgjsPath1110" d="M0 0H0V0H0V0Z " fill="#ffffff" transform="translate(0 0)"></path><text id="SvgjsText1111" font-family="Microsoft Yahei,SimSun" fill="#000000" font-size="13" font-weight="normal" font-style="normal" text-anchor="middle" text-decoration="blink" x="0" y="0"></text></g></g></g></g></svg>